<?xml version="1.0" standalone="no"?><!DOCTYPE svg PUBLIC "-//W3C//DTD SVG 1.1//EN" "http://www.w3.org/Graphics/SVG/1.1/DTD/svg11.dtd"><svg t="1587028532213" class="icon" viewBox="0 0 1024 1024" version="1.1" xmlns="http://www.w3.org/2000/svg" p-id="1764" xmlns:xlink="http://www.w3.org/1999/xlink" width="80" height="80"><defs><style type="text/css"></style></defs><path d="M902.623418 739.607273a72.797091 72.797091 0 0 1 24.203637 81.826909 72.052364 72.052364 0 0 1-68.887273 49.617454H165.808873a71.959273 71.959273 0 0 1-68.887273-49.710545 73.914182 73.914182 0 0 1 24.203636-81.733818l66.094546-51.944728a48.779636 48.779636 0 0 0 18.804363-38.632727V409.972364a308.317091 308.317091 0 0 1 227.886546-297.890909v-33.512728C434.003782 35.095273 468.912873 0 511.920873 0c43.008 0 77.917091 35.188364 78.010182 78.475636v33.605819a305.338182 305.338182 0 0 1 203.682909 177.989818c16.011636 38.074182 24.110545 78.382545 24.110545 119.901091v239.150545c0 15.173818 6.795636 29.323636 18.711273 38.632727l66.187636 51.851637zM408.683055 919.924364V917.876364h206.475636v2.048C615.251782 977.454545 568.892509 1024 511.920873 1024s-103.330909-46.638545-103.330909-104.075636z" fill="#d81e06" p-id="1765"></path></svg>