<?xml version="1.0" standalone="no"?><!DOCTYPE svg PUBLIC "-//W3C//DTD SVG 1.1//EN" "http://www.w3.org/Graphics/SVG/1.1/DTD/svg11.dtd"><svg t="1583408074656" class="icon" viewBox="0 0 1024 1024" version="1.1" xmlns="http://www.w3.org/2000/svg" p-id="2363" xmlns:xlink="http://www.w3.org/1999/xlink" width="80" height="80"><defs><style type="text/css"></style></defs><path d="M150.372367 334.708037V999.071191c0 32.300317-53.535377 32.172395-53.535377 0V376.154781l-56.989272 44.197067c-24.36915 18.804541-55.198363-28.590578-31.085058-47.267196L465.636253 19.699995c31.276941-25.328565 58.652259-27.055513 92.167835 0l456.873593 353.384657c24.113306 18.548697-6.715907 65.943815-31.021097 47.267196l-56.669467-43.685379v622.532644c0 32.300317-53.599338 32.172395-53.599338 0V335.091803L517.828448 59.931479C513.670982 56.541545 509.83332 56.541545 505.803776 59.675635l-355.431409 275.032402z" p-id="2364"></path><path d="M271.002858 468.258655h82.765564c8.250972 0 14.96688 7.291557 14.96688 16.182139v89.801277c0 8.954543-6.715907 16.2461-14.96688 16.2461H271.002858c-8.187011 0-14.96688-7.291557-14.96688-16.2461V484.440794c-0.127922-8.76266 6.715907-16.182139 14.96688-16.182139z m0 216.380143h82.765564c8.250972 0 14.96688 7.291557 14.96688 16.2461v89.545434c0 9.210387-6.715907 16.501944-14.96688 16.501944H271.002858c-8.187011 0-14.96688-7.291557-14.96688-16.501944v-89.545434c-0.127922-8.954543 6.715907-16.2461 14.96688-16.2461z m0 216.188261h82.765564c8.250972 0 14.96688 7.291557 14.96688 16.501944v89.545433c0 9.146426-6.715907 16.437983-14.96688 16.437983H271.002858c-8.187011 0-14.96688-7.291557-14.96688-16.437983v-89.545433c-0.127922-9.210387 6.715907-16.501944 14.96688-16.501944z m199.366511-216.188261h82.829525c8.187011 0 14.902919 7.291557 14.902919 16.2461v89.545434c0 9.210387-6.715907 16.501944-14.902919 16.501944H470.369369c-8.187011 0-14.96688-7.291557-14.96688-16.501944v-89.545434c-0.063961-8.954543 6.779869-16.2461 14.96688-16.2461z m0 216.188261h82.829525c8.187011 0 14.902919 7.291557 14.902919 16.501944v89.545433c0 9.146426-6.715907 16.437983-14.902919 16.437983H470.369369c-8.187011 0-14.96688-7.291557-14.96688-16.437983v-89.545433c-0.063961-9.210387 6.779869-16.501944 14.96688-16.501944z m199.622355 0h82.701604c8.187011 0 14.902919 7.291557 14.902918 16.501944v89.545433c0 9.146426-6.715907 16.437983-14.902918 16.437983h-82.701604c-8.378894 0-15.222724-7.291557-15.222724-16.437983v-89.545433c-0.063961-9.210387 6.84383-16.501944 15.222724-16.501944z" p-id="2365"></path></svg>